PathFileType  4	(X/Y/Z) C:\Users\antoi\Documents\MyRepositories\mobilecap\ResultsAnalysis
DataRate	CameraRate	NumFrames	NumMarkers	Units	OrigDataRate	OrigDataStartFrame	OrigNumFrames
100.0	100.0	5	51	mm	100.0	33	131
Frame#	Time	r_knee			r_shank_antsup			r_ankle			r_calc			r_5meta			r_toe			L_knee			L_shank_antsup			L_ankle			L_calc			L_5meta			L_toe			r_sh2			r_sh3			r_sh4			L_sh2			L_sh3			r_thigh1			r_thigh2			r_thigh3			r_thigh4			r_thigh5			L_thigh1			L_thigh2			L_thigh3			L_thigh4			r.ASIS			r.PSIS			L.ASIS			L.PSIS			C7			R_Shoulder			L_Shoulder			R_Sternum			L_Sternum			R_humerus			R_elbow_med			R_elbow_lat			R_forearm			R_wrist_radius			R_wrist_ulna			L_humerus			L_elbow_med			L_elbow_lat			L_forearm			L_wrist_radius			L_wrist_ulna			R_HJC			L_HJC			R_HJC_reg			L_HJC_reg			
		X1	Y1	Z1	X2	Y2	Z2	X3	Y3	Z3	X4	Y4	Z4	X5	Y5	Z5	X6	Y6	Z6	X7	Y7	Z7	X8	Y8	Z8	X9	Y9	Z9	X10	Y10	Z10	X11	Y11	Z11	X12	Y12	Z12	X13	Y13	Z13	X14	Y14	Z14	X15	Y15	Z15	X16	Y16	Z16	X17	Y17	Z17	X18	Y18	Z18	X19	Y19	Z19	X20	Y20	Z20	X21	Y21	Z21	X22	Y22	Z22	X23	Y23	Z23	X24	Y24	Z24	X25	Y25	Z25	X26	Y26	Z26	X27	Y27	Z27	X28	Y28	Z28	X29	Y29	Z29	X30	Y30	Z30	X31	Y31	Z31	X32	Y32	Z32	X33	Y33	Z33	X34	Y34	Z34	X35	Y35	Z35	X36	Y36	Z36	X37	Y37	Z37	X38	Y38	Z38	X39	Y39	Z39	X40	Y40	Z40	X41	Y41	Z41	X42	Y42	Z42	X43	Y43	Z43	X44	Y44	Z44	X45	Y45	Z45	X46	Y46	Z46	X47	Y47	Z47	X48	Y48	Z48	X49	Y49	Z49	X50	Y50	Z50	X51	Y51	Z51	

33	0.32000000	238.74341	489.07637	-63.63479	273.99757	443.70873	-73.32629	184.96100	90.47164	-125.76893	129.38307	59.22829	-179.96744	315.38088	35.54984	-87.99557	354.75243	61.29536	-142.83482	358.31852	518.52889	-341.70881	350.74441	433.02764	-353.20678	119.97774	209.25017	-314.13870	49.10285	209.51593	-259.02961	182.63939	91.20596	-347.29866	234.14664	84.14583	-298.71159	268.37653	329.07565	-96.40214	208.47614	436.21084	-37.34534	200.92457	320.74329	-45.05037	283.16440	492.97109	-359.83634	208.57304	396.71065	-355.78438	312.01736	789.89966	-109.03292	323.36991	678.08424	-107.17509	312.08150	655.27481	-44.31866	253.64637	783.50944	-12.18710	265.08299	669.63089	-14.63258	270.89189	823.77383	-367.17157	330.58167	694.78729	-373.05977	168.18483	779.25619	-360.58324	224.86131	655.34637	-345.55849	288.07398	963.80330	-76.22505	90.81847	998.49901	-140.47329	279.74458	945.81185	-310.30962	83.77913	993.18153	-238.50747	160.89055	1468.30748	-203.73683	217.29261	1429.15809	-45.20553	213.99530	1411.63485	-367.08170	266.22248	1364.69771	-189.70811	266.96512	1361.69955	-228.46925	245.51780	1198.05589	43.48093	188.74111	1099.64549	26.11423	228.45013	1108.16681	76.14520	328.43374	1002.55712	75.14190	396.87969	923.40364	49.92479	368.06549	907.24481	84.98335	184.09146	1177.45745	-441.17453	127.83645	1081.40285	-390.47705	146.01602	1084.52134	-448.99992	191.36134	949.56941	-474.89146	216.06383	841.70653	-457.87948	178.88846	840.65337	-481.98903	210.09158	882.19203	-101.37579	188.88439	878.95822	-290.82962	217.33437	891.24872	-99.86841	206.24310	882.87163	-254.29996	
34	0.33000000	240.27912	489.51076	-63.08824	275.19823	443.13828	-72.69895	184.98956	90.68806	-125.88796	129.50718	59.43726	-180.05277	315.37691	35.47835	-87.91721	354.77761	61.19915	-142.69866	377.10817	522.32156	-339.34852	373.66572	435.83598	-351.09358	156.58913	198.18020	-312.66668	85.62506	193.88075	-257.87027	227.34374	84.64062	-345.07773	278.93751	81.17252	-296.21726	269.01359	329.05411	-95.61102	209.05287	436.64614	-37.34358	200.85364	321.23758	-45.14390	302.76190	491.31007	-359.21143	234.15587	390.78355	-355.33005	322.17784	789.06348	-107.49025	330.29624	676.62118	-105.75653	317.51894	654.00710	-43.09329	261.06444	783.51494	-11.21011	270.40215	669.24644	-13.98041	286.14390	827.47594	-365.12733	347.89669	699.20557	-371.70038	184.01749	781.18908	-361.92065	242.54611	657.98137	-347.15141	298.73648	964.14245	-74.50843	102.43938	999.45291	-140.78369	292.75613	947.60140	-308.83570	96.10293	994.37187	-238.86352	173.33937	1469.39089	-203.15730	230.17639	1430.87377	-44.95589	226.46294	1412.48590	-366.52539	278.58754	1365.90669	-189.11424	279.28229	1362.84537	-227.79418	262.47677	1201.22835	44.79996	207.72303	1101.46130	28.57999	247.78525	1111.19165	78.14800	351.68787	1009.52984	75.08344	423.42201	933.63285	48.24160	395.76025	916.00194	83.57744	192.06641	1178.89103	-441.21469	133.19627	1084.14936	-391.34408	152.01913	1086.90344	-449.70900	194.45628	950.95751	-475.32936	216.53132	842.13781	-458.33094	179.43340	842.48541	-482.86702	221.03938	882.76131	-101.00799	201.78922	880.57161	-290.68724	228.33278	892.28439	-98.88622	218.34950	884.27810	-253.45223	
35	0.34000000	241.93585	489.87217	-62.55070	276.57881	442.48032	-72.16039	185.03103	90.89701	-125.99328	129.64205	59.64151	-180.14079	315.36447	35.41018	-87.83330	354.82625	61.10264	-142.55777	394.87584	525.51550	-337.17116	395.57926	438.29110	-349.18382	194.02410	186.90743	-311.12809	123.45340	177.87149	-256.51692	272.73969	78.58328	-342.86395	324.28505	78.85590	-293.83312	269.75242	328.99616	-94.88774	209.80778	437.06888	-37.28875	200.93727	321.72706	-45.20428	321.52766	488.92633	-358.47439	259.55540	384.29576	-354.70620	332.30137	788.03407	-105.95120	336.95008	674.97252	-104.29297	322.99737	652.69885	-41.85999	268.61151	783.39185	-10.36358	275.74433	668.78376	-13.38351	301.33541	830.71921	-363.17008	364.71645	702.99259	-370.33900	199.76239	782.77095	-363.14645	259.75526	660.30575	-348.08137	309.49329	964.16406	-72.81980	114.13049	1000.12042	-141.11421	305.73040	949.01825	-307.51697	108.50713	995.23442	-239.21278	185.79707	1470.17975	-202.61635	242.98454	1432.21679	-44.68921	238.94007	1413.03001	-365.99393	290.95273	1366.79213	-188.52678	291.64076	1363.67842	-227.12866	279.28549	1204.12982	46.12465	226.65078	1103.04568	31.10031	266.99607	1114.02526	80.15232	374.63638	1016.44584	74.95068	449.32777	943.87893	46.46381	422.95752	924.82630	82.07821	199.97596	1180.16180	-441.32325	138.62184	1086.72061	-392.20255	158.01219	1089.10887	-450.36904	197.69581	952.29555	-475.73911	217.40210	842.77151	-458.66072	180.37954	844.20508	-483.59946	232.06837	883.02265	-100.69087	214.69032	881.83771	-290.56073	239.33822	892.98620	-97.92341	230.47197	885.27814	-252.72199	
36	0.35000000	243.76722	490.13618	-62.01614	278.17202	441.82377	-71.70518	185.08501	91.10383	-126.07163	129.79265	59.83564	-180.23213	315.34557	35.34492	-87.73858	354.91425	61.00712	-142.41173	411.60369	528.02109	-335.20773	416.48036	440.37121	-347.55579	232.24668	175.68457	-309.54444	162.57869	161.77962	-254.98909	318.70120	73.32057	-340.72420	370.04468	77.44361	-291.59737	270.62206	328.90572	-94.24444	210.79548	437.47203	-37.15644	201.22973	322.20009	-45.21209	339.42015	485.87126	-357.53443	284.72356	377.36702	-353.83547	342.27990	786.77236	-104.44448	343.42736	673.16624	-102.81366	328.55706	651.35791	-40.64772	276.37582	783.13362	-9.67434	281.15700	668.23745	-12.85358	316.34941	833.34954	-361.51833	380.95780	706.03188	-368.98020	215.28479	783.95229	-364.19857	276.32560	662.19785	-348.29090	320.37587	963.89055	-71.18048	125.90012	1000.49201	-141.46550	318.68890	950.05681	-306.34290	120.98815	995.75259	-239.55857	198.26944	1470.66767	-202.11749	255.69929	1433.19686	-44.41376	251.41151	1413.27615	-365.48845	303.33053	1367.35449	-187.95147	304.03243	1364.18167	-226.48920	295.94979	1206.75733	47.42537	245.50943	1104.39504	33.63838	286.08652	1116.67561	82.12945	397.28021	1023.28225	74.72690	474.57598	954.08417	44.59730	449.60613	933.70241	80.49703	207.83616	1181.26903	-441.48130	144.17354	1089.12031	-392.99456	164.01368	1091.14167	-450.96248	201.08783	953.58166	-476.11250	218.69920	843.56414	-458.91732	181.70928	845.81445	-484.20429	243.20812	882.98696	-100.41626	227.60659	882.74194	-290.44482	250.39434	893.36866	-96.98492	242.63770	885.87664	-252.09037	
37	0.36000000	245.80623	490.31097	-61.47816	279.97486	441.24705	-71.30013	185.14951	91.31993	-126.11206	129.95952	60.02398	-180.32689	315.32856	35.28565	-87.62755	355.04896	60.90805	-142.26310	427.30439	529.75246	-333.48122	436.40610	442.05341	-346.23154	271.18999	164.80307	-307.93321	202.92121	145.96113	-253.33153	365.06148	69.13269	-338.70376	416.00490	77.14700	-289.50673	271.63900	328.79835	-93.66688	212.03643	437.85438	-36.93927	201.74933	322.65275	-45.16123	356.47754	482.15084	-356.35793	309.64156	370.09843	-352.69086	352.06310	785.26912	-103.00385	349.91237	671.25493	-101.35701	334.23613	649.98999	-39.48545	284.39913	782.72951	-9.13711	286.69258	667.60577	-12.39214	331.07148	835.24068	-360.28041	396.53657	708.21812	-367.63438	230.43270	784.71137	-365.02454	292.10188	663.54779	-347.94023	331.41705	963.35887	-69.64265	137.75683	1000.56557	-141.84561	331.65951	950.70670	-305.29173	133.53915	995.91470	-239.91703	210.75747	1470.84626	-201.66395	268.30939	1433.82813	-44.14348	263.86803	1413.23082	-365.01249	315.73768	1367.59440	-187.39166	316.44454	1364.34208	-225.88825	312.46287	1209.11131	48.68134	264.27898	1105.50813	36.14552	305.04269	1119.15006	84.04922	419.59472	1030.01609	74.40627	499.15527	964.19508	42.65202	475.66645	942.61827	78.83408	215.67026	1182.21021	-441.67078	149.90377	1091.34329	-393.67395	170.04394	1093.00022	-451.47963	204.65455	954.79629	-476.45699	220.44288	844.44374	-459.16070	183.41354	847.31524	-484.70192	254.48914	882.67750	-100.17794	240.55733	883.26717	-290.33699	261.55445	893.46297	-96.09621	254.87958	886.09282	-251.53056	
